<svg xmlns="http://www.w3.org/2000/svg" viewBox="0 0 720 460" width="720" height="460">
  <defs>
    <linearGradient id="bg" x1="0" y1="0" x2="0" y2="1">
      <stop offset="0" stop-color="#eb7e7f"/>
      <stop offset="1" stop-color="#d85f66"/>
    </linearGradient>
    <style>
      .title { font-family: 'Segoe UI', Arial, sans-serif; font-weight: 700; }
      .card-title { font-family: 'Segoe UI', Arial, sans-serif; font-weight: 700; }
    </style>
  </defs>

  <!-- Fond blanc -->
  <rect x="0" y="0" width="720" height="460" rx="28" fill="#ffffff"/>
  <rect x="1" y="1" width="718" height="458" rx="27" fill="none" stroke="#e7e9ef" stroke-width="2"/>

  <!-- Pointillés décoratifs -->
  <g fill="#c9d6f2">
    <circle cx="34" cy="34" r="3"/><circle cx="50" cy="34" r="3"/><circle cx="66" cy="34" r="3"/>
    <circle cx="34" cy="50" r="3"/><circle cx="50" cy="50" r="3"/><circle cx="66" cy="50" r="3"/>
    <circle cx="34" cy="66" r="3"/><circle cx="50" cy="66" r="3"/><circle cx="66" cy="66" r="3"/>
  </g>
  <g fill="#c9d6f2">
    <circle cx="654" cy="34" r="3"/><circle cx="670" cy="34" r="3"/><circle cx="686" cy="34" r="3"/>
    <circle cx="654" cy="50" r="3"/><circle cx="670" cy="50" r="3"/><circle cx="686" cy="50" r="3"/>
    <circle cx="654" cy="66" r="3"/><circle cx="670" cy="66" r="3"/><circle cx="686" cy="66" r="3"/>
  </g>

  <!-- Titre -->
  <text x="360" y="62" text-anchor="middle" class="title" font-size="27" fill="#1f2a44" letter-spacing="1">SUIVI PV RÉSIDENTIEL</text>

  <!-- Carte couleur avec icône -->
  <rect x="40" y="110" width="640" height="300" rx="18" fill="url(#bg)"/>
  <circle cx="360" cy="215" r="55" fill="#ffffff"/>
  <g fill="#d85f66">
    <polygon points="360,175 400,200 320,200"/>
    <rect x="330" y="200" width="60" height="42" rx="3"/>
    <rect x="342" y="214" width="14" height="14" fill="#ffffff"/>
  </g>
  <g stroke="#ffffff" stroke-width="2">
    <line x1="326" y1="192" x2="394" y2="192"/>
    <line x1="348" y1="179" x2="348" y2="192"/>
    <line x1="372" y1="179" x2="372" y2="192"/>
  </g>
  <circle cx="404" cy="176" r="9" fill="#ffd873"/>
  <text x="360" y="330" text-anchor="middle" class="card-title" font-size="27" fill="#ffffff">Suivi PV Résidentiel</text>
</svg>
